# xmcd
#
# Track frame offsets: 
#        150
#        19930
#        32287
#        43304
#        55990
#        70382
#        85463
#        98045
#        114506
#        129715
#        142726
#
# Disc length: 2110 seconds
#
# Revision: 0
# Processed by: cddbd v1.5.2PL0 Copyright (c) Steve Scherf et al.
# Submitted via: ExactAudioCopyFreeDBPlugin 1.0
#
DISCID=95083c0b
DTITLE=grupe Karcema ir Marijonas Budraitis - -asis Respublikinis zuvi
DTITLE=es virimo cempionatas
DYEAR=2013
DGENRE=Country
TTITLE0=Upe
TTITLE1=Lydeku trauktine
TTITLE2=Mes
TTITLE3=Karsis ar karosas
TTITLE4=Uz zvejyba
TTITLE5=Zuvienes daina
TTITLE6=Aukso zuvele
TTITLE7=O gimtoji upe
TTITLE8=Stintapukis
TTITLE9=Esu zvejys
TTITLE10=Rusnes kauboju daina
EXTD=
EXTT0=
EXTT1=
EXTT2=
EXTT3=
EXTT4=
EXTT5=
EXTT6=
EXTT7=
EXTT8=
EXTT9=
EXTT10=
PLAYORDER=
